:SAMPLES-PER-SECOND 30
:FULLY-SPECIFIED
:DEGREES
859
root  47.8302 38.9269 0.348115 -8.61304 80.0313 -5.52413
RightUpLeg  6.6152 -7.71562 0.426887
RightLeg  10.3942 7.32713 1.80212
RightFoot  -13.0476 -0.138558 -3.43638
RightToes  -8.3237e-009 0 -3.6325e-017
Spine  4.54 1.33157 9.63118
Spine1  6.47394 2.41321 -3.19352
HEad  -21.9152 2.19728 -4.38831
LeftShoulder1  -0.775337 5.43271 -33.9934
LeftArm  8.95053 15.6174 -41.294
LeftForeArm  26.987 -16.8193 -6.69276
LeftHand  -0.105727 7.54725 -3.216
RightShoulder  -0.853298 -5.90711 28.8698
RightArm  21.3949 4.16653 46.5363
RightForeArm  10.8948 32.2776 6.50558
RightHand  -0.0982962 5.43777 -1.37005
LeftUpLeg  -17.3375 6.19293 -0.663284
LeftLeg  5.59588 7.37282 -0.716622
LeftFoot  -3.36042 0.297539 -3.97131
LeftToes  -1.18267e-011 3.61711e-011 9.57411e-011
860
root  48.8564 38.8054 0.620646 -10.1228 80.2819 -7.16092
RightUpLeg  8.67982 -7.58381 0.603686
RightLeg  9.64917 7.0346 1.76711
RightFoot  -14.3973 -0.173224 -2.85452
RightToes  -8.3237e-009 0 -3.6325e-017
Spine  3.87853 1.38112 9.58157
Spine1  6.97713 2.64978 -4.11061
HEad  -21.9445 1.9518 -3.8342
LeftShoulder1  -0.679788 5.23651 -33.0832
LeftArm  10.1963 15.5074 -41.9382
LeftForeArm  25.7617 -17.6685 -6.27888
LeftHand  -0.10328 7.71338 -2.83381
RightShoulder  -0.987906 -6.19394 30.1747
RightArm  23.839 4.01091 46.1121
RightForeArm  9.23474 29.9666 6.0229
RightHand  -0.124288 5.83333 -1.61135
LeftUpLeg  -15.9459 2.89225 -0.0184706
LeftLeg  -3.80499 17.9333 -2.51311
LeftFoot  -3.78893 0.360223 -5.12768
LeftToes  -1.18267e-011 3.61711e-011 9.57411e-011
861
root  49.9644 38.536 0.87617 -14.8568 80.709 -11.7947
RightUpLeg  10.7171 -7.47595 1.26309
RightLeg  9.92216 6.28209 1.79
RightFoot  -16.276 -0.231648 -2.79017
RightToes  -8.3237e-009 0 -3.6325e-017
Spine  3.1879 1.44445 9.19378
Spine1  7.66777 2.51864 -3.50984
HEad  -22.0747 1.78069 -4.03838
LeftShoulder1  -0.717461 5.30772 -33.6078
LeftArm  11.4228 14.9209 -41.4624
LeftForeArm  24.4465 -18.6516 -5.7489
LeftHand  -0.0868195 7.66835 -2.13976
RightShoulder  -0.977491 -6.17744 29.9963
RightArm  26.4334 3.68337 47.0812
RightForeArm  7.2414 25.9506 5.15371
RightHand  -0.110831 5.74736 -1.47902
LeftUpLeg  -16.2045 2.56831 -0.189045
LeftLeg  -6.88373 24.9588 -3.29252
LeftFoot  -4.75575 0.348548 -5.5544
LeftToes  -1.18267e-011 3.61711e-011 9.57411e-011
862
root  51.1007 38.2003 1.12388 -21.074 81.7064 -17.7859
RightUpLeg  12.965 -7.51362 1.89621
RightLeg  10.2643 5.20049 1.90445
RightFoot  -18.2702 -0.317546 -3.20422
RightToes  -8.3237e-009 0 -3.6325e-017
Spine  2.97598 1.31473 8.08963
Spine1  7.89032 2.05605 -2.25244
HEad  -22.6342 1.67085 -4.29759
LeftShoulder1  -0.745069 5.37558 -33.638
LeftArm  11.9918 14.5033 -41.5101
LeftForeArm  23.3402 -19.5722 -5.21937
LeftHand  -0.0895235 7.54069 -2.40604
RightShoulder  -0.977698 -6.16557 30.1651
RightArm  29.6364 3.12847 47.4729
RightForeArm  5.22762 21.2671 4.94264
RightHand  -0.120226 5.72093 -1.57978
LeftUpLeg  -16.4541 2.99407 -0.468115
LeftLeg  -5.99232 30.754 -4.02838
LeftFoot  -4.08136 0.313322 -4.54855
LeftToes  -1.18267e-011 3.61711e-011 9.57411e-011
863
root  52.3127 37.8919 1.39186 -25.2382 82.7592 -21.4697
RightUpLeg  15.5019 -8.00464 1.78133
RightLeg  10.7538 4.54287 2.12
RightFoot  -20.0978 -0.35647 -2.90214
RightToes  -8.3237e-009 0 -3.6325e-017
Spine  3.08172 1.5326 7.22844
Spine1  8.07376 2.28304 -2.00481
HEad  -22.5532 0.33225 -4.08525
LeftShoulder1  -0.725527 5.31862 -33.819
LeftArm  13.765 13.4269 -40.9307
LeftForeArm  21.3449 -20.2203 -4.9934
LeftHand  -0.0616378 7.00967 -1.55676
RightShoulder  -0.993525 -6.20575 30.2089
RightArm  26.3056 1.80276 47.7897
RightForeArm  9.18927 15.5731 6.86007
RightHand  -0.101342 5.74015 -1.38863
LeftUpLeg  -16.4674 4.66895 -1.01649
LeftLeg  -2.1632 35.0478 -4.5129
LeftFoot  -3.72753 0.187915 -2.28828
LeftToes  -1.18267e-011 3.61711e-011 9.57411e-011
